<svg id="Layer_1" data-name="Layer 1" xmlns="http://www.w3.org/2000/svg" width="32" height="32" viewBox="0 0 32 32">
  <path id="Background" d="M22,32H4a3,3,0,0,1-3-3H1V11A3,3,0,0,1,4,8H16.2A3,3,0,0,0,19,10h3v3a3,3,0,0,0,3,3V29a3,3,0,0,1-3,3Z" style="fill: #5059c9"/>
  <path id="T" d="M14.5,26.4H12.1V17H9V15h8.6v2H14.5Z" style="fill: #fff"/>
  <path id="Shadow" d="M2.5,18A2.69,2.69,0,0,1,1,17.5v-4a2.53,2.53,0,0,1,3.5.5A2.53,2.53,0,0,1,4,17.5,2.69,2.69,0,0,1,2.5,18Z" style="fill: #444cab"/>
  <circle id="Dot" cx="2" cy="15" r="2" style="fill: #7b83eb"/>
  <path id="Plus" d="M24,13V8H19a.94.94,0,0,1-1-1,.94.94,0,0,1,1-1h5V1a1,1,0,0,1,2,0V6h5a.94.94,0,0,1,1,1,.94.94,0,0,1-1,1H26v5a1,1,0,0,1-2,0Z" style="fill: #444cab"/>
</svg>
