<svg xmlns="http://www.w3.org/2000/svg" width="32" height="32" viewBox="0 0 32 32">
  <path d="M12.429,16h7.142A1.429,1.429,0,0,1,21,17.429V23a5,5,0,0,1-5,5h0a5,5,0,0,1-5-5V17.429A1.429,1.429,0,0,1,12.429,16Z" fill="#5059c9"/>
  <circle cx="16" cy="12" r="3" fill="#5059c9"/>
  <path d="M7.429,16h7.142A1.429,1.429,0,0,1,16,17.429V23a5,5,0,0,1-5,5h0a5,5,0,0,1-5-5V17.429A1.429,1.429,0,0,1,7.429,16Z" fill="#444cab"/>
  <path d="M1.75,15h10.5A1.751,1.751,0,0,1,14,16.75h0V25a7,7,0,0,1-7,7H7a7,7,0,0,1-7-7V16.75A1.751,1.751,0,0,1,1.75,15Z" fill="#7b83eb"/>
  <circle cx="7" cy="10" r="4" fill="#7b83eb"/>
  <path d="M24,13V8H19a1,1,0,0,1,0-2h5V1a1,1,0,0,1,2,0V6h5a1,1,0,0,1,0,2H26v5a1,1,0,0,1-2,0Z" fill="#444cab"/>
</svg>
