<svg xmlns="http://www.w3.org/2000/svg" width="32" height="32" viewBox="0 0 32 32">
  <path d="M22,32H4a3,3,0,0,1-3-3V11A3,3,0,0,1,4,8H17.411l-1.092,2.369A3,3,0,0,0,20.5,14.316l.008.007L25,12.457V29A3,3,0,0,1,22,32Z" fill="#5059c9"/>
  <path d="M14.523,26.422H12.1V17.016H9V15h8.625v2.016h-3.1Z" fill="#fff"/>
  <path d="M2.5,18A2.476,2.476,0,0,1,1,17.5v-4A2.5,2.5,0,1,1,2.5,18Z" fill="#444cab"/>
  <circle cx="2" cy="15" r="2" fill="#7b83eb"/>
  <path d="M18,12a.994.994,0,0,1,.148-.523L19.586,8H24a1,1,0,0,0,0-2H19.592L18.207,2.609A1,1,0,0,1,19.5,1.132h0L31.234,6v.028a1,1,0,0,1,0,1.945V8L19.519,12.86h0A1.007,1.007,0,0,1,18,12Z" fill="#444cab"/>
</svg>
