<svg xmlns="http://www.w3.org/2000/svg" width="32" height="32" viewBox="0 0 32 32">
  <path d="M20,8.5a5.508,5.508,0,0,1,5-5.477V3h3.072L26.95,1.878A1,1,0,1,1,28.364.464l2.829,2.829a1,1,0,0,1,0,1.414L28.364,7.535A1,1,0,0,1,26.95,6.121L28.071,5H26v.035A3.514,3.514,0,0,0,25.576,5h-.154a3.5,3.5,0,1,0,3.541,4H29a1,1,0,1,1,1.932.362A5.5,5.5,0,0,1,20,8.5Z" fill="#444cab"/>
  <path d="M12.429,16h7.142A1.429,1.429,0,0,1,21,17.429V23a5,5,0,0,1-5,5h0a5,5,0,0,1-5-5V17.429A1.429,1.429,0,0,1,12.429,16Z" fill="#5059c9"/>
  <circle cx="16" cy="12" r="3" fill="#5059c9"/>
  <path d="M7.429,16h7.142A1.429,1.429,0,0,1,16,17.429V23a5,5,0,0,1-5,5h0a5,5,0,0,1-5-5V17.429A1.429,1.429,0,0,1,7.429,16Z" fill="#444cab"/>
  <path d="M1.75,15h10.5A1.751,1.751,0,0,1,14,16.75h0V25a7,7,0,0,1-7,7H7a7,7,0,0,1-7-7V16.75A1.751,1.751,0,0,1,1.75,15Z" fill="#7b83eb"/>
  <circle cx="7" cy="10" r="4" fill="#7b83eb"/>
</svg>
